<?xml version="1.0" encoding="UTF-8"?>
<!-- Generated by Pixelmator Pro 3.6.17 -->
<svg width="45" height="24" viewBox="0 0 45 24" xmlns="http://www.w3.org/2000/svg">
    <g id="Agrupar">
        <path id="Trazado" fill="#3e4245" fill-rule="evenodd" stroke="none" d="M 10.741357 -0.030001 C 18.560524 -0.030001 26.379635 -0.030001 34.198803 -0.030001 C 39.287453 0.71673 42.70829 3.516733 44.461437 8.37 C 44.689907 9.166019 44.859493 9.966001 44.970081 10.77 C 44.970081 11.56998 44.970081 12.370021 44.970081 13.17 C 44.225307 18.272219 41.432793 21.702181 36.592419 23.459999 C 35.798515 23.689079 35.000668 23.859121 34.198803 23.969999 C 26.379635 23.969999 18.560524 23.969999 10.741357 23.969999 C 5.65273 23.22324 2.23185 20.423281 0.478723 15.57 C 0.250232 14.77398 0.080684 13.974 -0.02992 13.17 C -0.02992 12.370021 -0.02992 11.56998 -0.02992 10.77 C 0.714824 5.667805 3.507379 2.237801 8.347739 0.48 C 9.141643 0.2509 9.939495 0.0809 10.741357 -0.030001 Z"/>
    </g>
    <g id="g1">
        <path id="path1" fill="#fefefe" fill-rule="evenodd" stroke="none" d="M 10.980718 0.93 C 18.520611 0.919998 26.060505 0.93 33.600399 0.959999 C 37.337914 1.271828 40.240173 2.981827 42.307182 6.09 C 44.359108 9.54018 44.558556 13.100221 42.905586 16.77 C 40.927021 20.511061 37.825253 22.58106 33.600399 22.98 C 26.060505 23.02002 18.520611 23.02002 10.980718 22.98 C 7.027061 22.47426 4.084905 20.484301 2.154255 17.01 C 0.220702 12.90204 0.559798 9.00204 3.171543 5.309999 C 5.184203 2.795885 7.787274 1.335888 10.980718 0.93 Z"/>
    </g>
    <g id="g2">
        <path id="path2" fill="#e94336" fill-rule="evenodd" stroke="none" d="M 9.065825 10.95 C 8.50841 10.53144 7.949921 10.11144 7.390293 9.69 C 8.084442 8.264521 9.201483 7.3545 10.741357 6.959999 C 12.229707 6.65868 13.606037 6.918661 14.870346 7.74 C 15.058544 7.858681 15.218138 8.008679 15.34907 8.19 C 14.901163 8.66916 14.442368 9.13914 13.972739 9.6 C 12.241975 8.4093 10.716043 8.63928 9.394947 10.29 C 9.284422 10.51158 9.174734 10.7316 9.065825 10.95 Z"/>
    </g>
    <g id="g3">
        <path id="path3" fill="#7f8284" fill-rule="evenodd" stroke="none" d="M 23.547207 7.530001 C 22.470079 7.530001 21.392952 7.530001 20.315825 7.530001 C 20.315825 10.48998 20.315825 13.450021 20.315825 16.41 C 20.674868 16.41 21.033909 16.41 21.392952 16.41 C 21.373205 15.19956 21.393131 13.99956 21.452793 12.81 C 21.452793 14.02998 21.452793 15.25002 21.452793 16.469999 C 21.053837 16.469999 20.65494 16.469999 20.255983 16.469999 C 20.255983 13.47 20.255983 10.47 20.255983 7.469999 C 21.36351 7.450199 22.460566 7.470179 23.547207 7.530001 Z"/>
    </g>
    <g id="g4">
        <path id="path4" fill="#3b4043" fill-rule="evenodd" stroke="none" d="M 23.547207 7.530001 C 24.758259 7.6341 25.586031 8.25414 26.030584 9.39 C 26.32452 11.03106 25.696196 12.14106 24.145611 12.72 C 23.25016 12.8013 22.352554 12.8313 21.452793 12.81 C 21.393131 13.99956 21.373205 15.19956 21.392952 16.41 C 21.033909 16.41 20.674868 16.41 20.315825 16.41 C 20.315825 13.450021 20.315825 10.48998 20.315825 7.530001 C 21.392952 7.530001 22.470079 7.530001 23.547207 7.530001 Z"/>
    </g>
    <g id="g5">
        <path id="path5" fill="#fefefe" fill-rule="evenodd" stroke="none" d="M 21.452793 8.61 C 22.211029 8.59998 22.96903 8.61 23.726728 8.64 C 24.810141 9.04278 25.159248 9.79278 24.773935 10.89 C 24.526735 11.32848 24.1577 11.58846 23.666889 11.67 C 22.928875 11.67 22.190805 11.67 21.452793 11.67 C 21.452793 10.65 21.452793 9.63 21.452793 8.61 Z"/>
    </g>
    <g id="g6">
        <path id="path6" fill="#f8ba0d" fill-rule="evenodd" stroke="none" d="M 7.390293 9.69 C 7.949921 10.11144 8.50841 10.53144 9.065825 10.95 C 8.910119 11.628719 8.910119 12.308701 9.065825 12.99 C 8.507334 13.41 7.948783 13.83 7.390293 14.25 C 6.59256 12.72876 6.59256 11.20878 7.390293 9.69 Z"/>
    </g>
    <g id="g7">
        <path id="path7" fill="#3c4144" fill-rule="evenodd" stroke="none" d="M 28.513964 10.11 C 29.451841 10.0119 30.309593 10.2219 31.087101 10.74 C 31.485399 11.12868 31.734755 11.59866 31.835106 12.15 C 31.865026 13.58988 31.875019 15.029881 31.865026 16.469999 C 31.505983 16.469999 31.146942 16.469999 30.787899 16.469999 C 30.797832 16.16934 30.78784 15.869341 30.757978 15.57 C 30.019009 16.576921 29.051628 16.88694 27.855719 16.5 C 26.528519 15.848159 26.159481 14.83818 26.748671 13.47 C 27.325771 12.76008 28.073778 12.440101 28.992685 12.51 C 29.616821 12.47646 30.215225 12.57648 30.787899 12.81 C 30.689939 11.60268 30.031696 11.05272 28.813166 11.16 C 28.324987 11.28996 27.936024 11.55996 27.646276 11.97 C 27.312008 11.75742 26.982885 11.53746 26.658909 11.31 C 27.135479 10.681561 27.753809 10.2816 28.513964 10.11 Z"/>
    </g>
    <g id="g8">
        <path id="path8" fill="#3d4245" fill-rule="evenodd" stroke="none" d="M 32.044548 10.29 C 32.458763 10.27128 32.86771 10.29126 33.271278 10.35 C 33.869682 11.79 34.468086 13.23 35.06649 14.67 C 35.707619 13.2315 36.296032 11.77146 36.831783 10.29 C 37.250664 10.29 37.669548 10.29 38.088432 10.29 C 36.831783 13.24998 35.575134 16.21002 34.318485 19.17 C 33.917553 19.1898 33.518654 19.169821 33.121677 19.110001 C 33.597046 18.09684 34.055782 17.076841 34.498005 16.049999 C 33.679268 14.128381 32.861431 12.208381 32.044548 10.29 Z"/>
    </g>
    <g id="g9">
        <path id="path9" fill="#4285f3" fill-rule="evenodd" stroke="none" d="M 15.289228 15.81 C 14.753537 15.432961 14.234961 15.033 13.733377 14.61 C 13.97256 14.360101 14.201928 14.10012 14.421542 13.83 C 14.566057 13.56534 14.655817 13.28532 14.690825 12.99 C 13.773292 12.99 12.855698 12.99 11.938165 12.99 C 11.938165 12.33 11.938165 11.67 11.938165 11.01 C 13.553857 11.01 15.169548 11.01 16.78524 11.01 C 17.045126 12.57732 16.735991 14.01732 15.857713 15.33 C 15.692195 15.526621 15.502679 15.68658 15.289228 15.81 Z"/>
    </g>
    <g id="g10">
        <path id="path10" fill="#afb0b2" fill-rule="evenodd" stroke="none" d="M 21.452793 8.61 C 21.452793 9.63 21.452793 10.65 21.452793 11.67 C 22.190805 11.67 22.928875 11.67 23.666889 11.67 C 22.91954 11.7297 22.161543 11.74974 21.392952 11.73 C 21.373205 10.679521 21.393131 9.63954 21.452793 8.61 Z"/>
    </g>
    <g id="g11">
        <path id="path11" fill="#36a853" fill-rule="evenodd" stroke="none" d="M 9.065825 12.99 C 9.808085 14.67216 11.084661 15.3222 12.895612 14.94 C 13.182846 14.84586 13.462061 14.73582 13.733377 14.61 C 14.234961 15.033 14.753537 15.432961 15.289228 15.81 C 15.158537 16.06674 14.959029 16.256762 14.690825 16.380001 C 12.105538 17.68644 9.841536 17.276461 7.898936 15.15 C 7.697633 14.8662 7.528105 14.5662 7.390293 14.25 C 7.948783 13.83 8.507334 13.41 9.065825 12.99 Z"/>
    </g>
    <g id="g12">
        <path id="path12" fill="#fbfbfb" fill-rule="evenodd" stroke="none" d="M 28.693483 13.41 C 29.112846 13.40004 29.531729 13.41 29.950132 13.44 C 30.228571 13.509601 30.487919 13.619579 30.728058 13.77 C 30.762768 14.05854 30.712858 14.3385 30.578457 14.61 C 30.062513 15.42372 29.334435 15.73374 28.394281 15.54 C 27.467833 15.02688 27.388065 14.40684 28.154921 13.68 C 28.339947 13.587239 28.519468 13.49724 28.693483 13.41 Z"/>
    </g>
</svg>
