<?xml version="1.0" encoding="UTF-8"?>
<!DOCTYPE svg PUBLIC "-//W3C//DTD SVG 1.1//EN" "http://www.w3.org/Graphics/SVG/1.1/DTD/svg11.dtd">
<svg xmlns="http://www.w3.org/2000/svg" version="1.1" width="1342px" height="1334px" style="shape-rendering:geometricPrecision; text-rendering:geometricPrecision; image-rendering:optimizeQuality; fill-rule:evenodd; clip-rule:evenodd" xmlns:xlink="http://www.w3.org/1999/xlink">
<g><path style="opacity:1" fill="#2f74fc" d="M 517.5,-0.5 C 519.833,-0.5 522.167,-0.5 524.5,-0.5C 525.183,1.17649 526.517,1.84316 528.5,1.5C 528.343,2.87344 528.51,4.20677 529,5.5C 529.333,4.83333 529.667,4.16667 530,3.5C 530.47,5.77379 531.47,7.77379 533,9.5C 533.333,8.83333 533.667,8.16667 534,7.5C 534.333,8.83333 534.667,10.1667 535,11.5C 535.333,10.8333 535.667,10.1667 536,9.5C 536.333,10.8333 536.667,12.1667 537,13.5C 537.333,12.8333 537.667,12.1667 538,11.5C 538.333,12.8333 538.667,14.1667 539,15.5C 539.333,14.8333 539.667,14.1667 540,13.5C 540.333,14.8333 540.667,16.1667 541,17.5C 541.333,16.8333 541.667,16.1667 542,15.5C 542.333,16.8333 542.667,18.1667 543,19.5C 543.333,18.8333 543.667,18.1667 544,17.5C 544.47,19.7738 545.47,21.7738 547,23.5C 547.333,22.8333 547.667,22.1667 548,21.5C 548.333,22.8333 548.667,24.1667 549,25.5C 549.333,24.8333 549.667,24.1667 550,23.5C 550.333,24.8333 550.667,26.1667 551,27.5C 551.333,26.8333 551.667,26.1667 552,25.5C 552.333,26.8333 552.667,28.1667 553,29.5C 553.333,28.8333 553.667,28.1667 554,27.5C 554.333,28.8333 554.667,30.1667 555,31.5C 555.667,28.8333 556.333,28.8333 557,31.5C 557.74,29.6813 558.907,28.3479 560.5,27.5C 614.47,79.8027 667.803,132.803 720.5,186.5C 720.859,188.371 721.859,189.871 723.5,191C 722.429,191.852 721.429,192.685 720.5,193.5C 718.908,194.602 718.075,193.935 718,191.5C 717.667,191.833 717.333,192.167 717,192.5C 715.442,190.739 713.775,188.406 712,185.5C 711.667,186.167 711.333,186.833 711,187.5C 710.667,186.167 710.333,184.833 710,183.5C 709.667,184.167 709.333,184.833 709,185.5C 708.667,183.833 708.333,182.167 708,180.5C 707.667,181.167 707.333,181.833 707,182.5C 705.37,181.28 704.37,179.28 704,176.5C 703.026,178.878 702.359,178.544 702,175.5C 701.667,176.167 701.333,176.833 701,177.5C 700.667,176.167 700.333,174.833 700,173.5C 699.667,174.167 699.333,174.833 699,175.5C 698.667,173.833 698.333,172.167 698,170.5C 697.667,171.5 697.333,172.5 697,173.5C 696.667,171.833 696.333,170.167 696,168.5C 695.667,169.5 695.333,170.5 695,171.5C 694.667,169.833 694.333,168.167 694,166.5C 693.667,167.5 693.333,168.5 693,169.5C 692.667,167.833 692.333,166.167 692,164.5C 691.086,168.185 690.419,167.852 690,163.5C 689.667,164.167 689.333,164.833 689,165.5C 688.667,164.167 688.333,162.833 688,161.5C 687.374,163.991 686.541,163.991 685.5,161.5C 684.702,159.922 684.202,158.256 684,156.5C 683.667,157.5 683.333,158.5 683,159.5C 682.667,157.833 682.333,156.167 682,154.5C 681.086,158.185 680.419,157.852 680,153.5C 679.667,154.167 679.333,154.833 679,155.5C 678.667,153.833 678.333,152.167 678,150.5C 677.026,152.878 676.359,152.544 676,149.5C 675.667,150.167 675.333,150.833 675,151.5C 674.667,150.167 674.333,148.833 674,147.5C 673.667,147.833 673.333,148.167 673,148.5C 672.641,145.456 671.974,145.122 671,147.5C 670,145.5 669,143.5 668,141.5C 667.667,142.167 667.333,142.833 667,143.5C 665.763,140.263 664.097,137.263 662,134.5C 661.086,138.185 660.419,137.852 660,133.5C 659.667,134.167 659.333,134.833 659,135.5C 658.667,134.167 658.333,132.833 658,131.5C 657.667,132.167 657.333,132.833 657,133.5C 656.667,132.167 656.333,130.833 656,129.5C 655.667,130.167 655.333,130.833 655,131.5C 654.667,130.167 654.333,128.833 654,127.5C 653.667,128.167 653.333,128.833 653,129.5C 652.667,128.167 652.333,126.833 652,125.5C 651.667,126.167 651.333,126.833 651,127.5C 650.667,126.167 650.333,124.833 650,123.5C 649.667,124.167 649.333,124.833 649,125.5C 648.667,124.167 648.333,122.833 648,121.5C 647.667,122.167 647.333,122.833 647,123.5C 646.667,122.167 646.333,120.833 646,119.5C 645.667,120.167 645.333,120.833 645,121.5C 644.667,120.167 644.333,118.833 644,117.5C 643.667,118.167 643.333,118.833 643,119.5C 642.667,118.167 642.333,116.833 642,115.5C 641.667,116.167 641.333,116.833 641,117.5C 640.667,116.167 640.333,114.833 640,113.5C 639.667,114.167 639.333,114.833 639,115.5C 637.47,113.774 636.47,111.774 636,109.5C 635.667,110.167 635.333,110.833 635,111.5C 634.667,110.167 634.333,108.833 634,107.5C 633.667,108.167 633.333,108.833 633,109.5C 632.667,108.167 632.333,106.833 632,105.5C 631.667,106.167 631.333,106.833 631,107.5C 630.667,106.167 630.333,104.833 630,103.5C 629.667,104.167 629.333,104.833 629,105.5C 628.667,104.167 628.333,102.833 628,101.5C 627.667,102.167 627.333,102.833 627,103.5C 626.667,102.167 626.333,100.833 626,99.5C 625.667,100.167 625.333,100.833 625,101.5C 624,99.5 623,97.5 622,95.5C 621.667,96.1667 621.333,96.8333 621,97.5C 620.667,96.1667 620.333,94.8333 620,93.5C 619.667,94.1667 619.333,94.8333 619,95.5C 618.667,94.1667 618.333,92.8333 618,91.5C 617.667,92.1667 617.333,92.8333 617,93.5C 616.667,92.1667 616.333,90.8333 616,89.5C 615.667,90.1667 615.333,90.8333 615,91.5C 614.667,90.1667 614.333,88.8333 614,87.5C 613.667,88.1667 613.333,88.8333 613,89.5C 612.667,88.1667 612.333,86.8333 612,85.5C 611.667,86.1667 611.333,86.8333 611,87.5C 610.667,85.8333 610.333,84.1667 610,82.5C 608.817,83.731 607.651,83.731 606.5,82.5C 605.137,81.1072 604.304,79.4405 604,77.5C 603.362,78.6086 602.862,79.7753 602.5,81C 639.632,118.299 676.632,155.799 713.5,193.5C 715.498,195.334 717.832,196.334 720.5,196.5C 716.64,200.135 712.64,203.802 708.5,207.5C 707.311,208.429 705.978,208.762 704.5,208.5C 703.669,213.005 701.002,216.005 696.5,217.5C 692.749,221.808 688.749,225.808 684.5,229.5C 683.311,230.429 681.978,230.762 680.5,230.5C 678.991,235.682 675.658,239.349 670.5,241.5C 666.357,246.724 661.69,251.39 656.5,255.5C 655.311,256.429 653.978,256.762 652.5,256.5C 650.991,261.682 647.658,265.349 642.5,267.5C 638.5,271.5 634.5,275.5 630.5,279.5C 629.311,280.429 627.978,280.762 626.5,280.5C 624.991,285.682 621.658,289.349 616.5,291.5C 612.5,295.5 608.5,299.5 604.5,303.5C 603.311,304.429 601.978,304.762 600.5,304.5C 598.317,310.356 594.317,314.689 588.5,317.5C 569.833,334.833 551.167,352.167 532.5,369.5C 526.574,373.421 521.241,378.088 516.5,383.5C 515.167,384.167 513.833,384.833 512.5,385.5C 500.5,396.167 488.5,406.833 476.5,417.5C 473.268,418.73 470.601,420.73 468.5,423.5C 467.311,424.429 465.978,424.762 464.5,424.5C 464.5,425.833 464.5,427.167 464.5,428.5C 460.5,430.5 456.5,432.5 452.5,434.5C 452.5,435.833 452.5,437.167 452.5,438.5C 449.167,439.833 445.833,441.167 442.5,442.5C 442.5,443.833 442.5,445.167 442.5,446.5C 438.412,447.562 435.079,449.896 432.5,453.5C 421.564,460.456 411.231,468.123 401.5,476.5C 400.778,477.551 399.778,478.218 398.5,478.5C 398.649,477.448 398.483,476.448 398,475.5C 374.081,451.581 350.081,427.581 326,403.5C 325.29,404.973 324.124,405.64 322.5,405.5C 322.608,407.514 321.942,409.18 320.5,410.5C 319.833,410.5 319.5,410.167 319.5,409.5C 321.86,406.581 322.693,403.248 322,399.5C 293.527,371.694 265.36,343.527 237.5,315C 236.552,314.517 235.552,314.351 234.5,314.5C 234.649,313.448 234.483,312.448 234,311.5C 229.263,306.932 224.763,302.265 220.5,297.5C 219.548,295.955 219.215,294.288 219.5,292.5C 218.5,292.5 217.5,292.5 216.5,292.5C 218.144,289.996 219.644,287.329 221,284.5C 229.645,276.689 238.145,268.689 246.5,260.5C 246.5,261.5 246.5,262.5 246.5,263.5C 247.873,263.343 249.207,263.51 250.5,264C 249.692,264.308 249.025,264.808 248.5,265.5C 249.365,266.583 250.365,266.749 251.5,266C 319.044,198.788 386.378,131.788 453.5,65C 474.059,43.7731 495.225,23.2731 517,3.5C 517.49,2.20677 517.657,0.873441 517.5,-0.5 Z"/></g>
<g><path style="opacity:0.086" fill="#3679fb" d="M 524.5,-0.5 C 530.5,-0.5 536.5,-0.5 542.5,-0.5C 542.021,2.06438 541.355,4.56438 540.5,7C 547.705,13.3706 554.371,20.2039 560.5,27.5C 558.907,28.3479 557.74,29.6813 557,31.5C 556.333,28.8333 555.667,28.8333 555,31.5C 554.667,30.1667 554.333,28.8333 554,27.5C 553.667,28.1667 553.333,28.8333 553,29.5C 552.667,28.1667 552.333,26.8333 552,25.5C 551.667,26.1667 551.333,26.8333 551,27.5C 550.667,26.1667 550.333,24.8333 550,23.5C 549.667,24.1667 549.333,24.8333 549,25.5C 548.667,24.1667 548.333,22.8333 548,21.5C 547.667,22.1667 547.333,22.8333 547,23.5C 545.47,21.7738 544.47,19.7738 544,17.5C 543.667,18.1667 543.333,18.8333 543,19.5C 542.667,18.1667 542.333,16.8333 542,15.5C 541.667,16.1667 541.333,16.8333 541,17.5C 540.667,16.1667 540.333,14.8333 540,13.5C 539.667,14.1667 539.333,14.8333 539,15.5C 538.667,14.1667 538.333,12.8333 538,11.5C 537.667,12.1667 537.333,12.8333 537,13.5C 536.667,12.1667 536.333,10.8333 536,9.5C 535.667,10.1667 535.333,10.8333 535,11.5C 534.667,10.1667 534.333,8.83333 534,7.5C 533.667,8.16667 533.333,8.83333 533,9.5C 531.47,7.77379 530.47,5.77379 530,3.5C 529.667,4.16667 529.333,4.83333 529,5.5C 528.51,4.20677 528.343,2.87344 528.5,1.5C 526.517,1.84316 525.183,1.17649 524.5,-0.5 Z"/></g>
<g><path style="opacity:0.945" fill="#1f69fc" d="M 720.5,193.5 C 720.5,194.5 720.5,195.5 720.5,196.5C 717.832,196.334 715.498,195.334 713.5,193.5C 676.632,155.799 639.632,118.299 602.5,81C 602.862,79.7753 603.362,78.6086 604,77.5C 604.304,79.4405 605.137,81.1072 606.5,82.5C 607.651,83.731 608.817,83.731 610,82.5C 610.333,84.1667 610.667,85.8333 611,87.5C 611.333,86.8333 611.667,86.1667 612,85.5C 612.333,86.8333 612.667,88.1667 613,89.5C 613.333,88.8333 613.667,88.1667 614,87.5C 614.333,88.8333 614.667,90.1667 615,91.5C 615.333,90.8333 615.667,90.1667 616,89.5C 616.333,90.8333 616.667,92.1667 617,93.5C 617.333,92.8333 617.667,92.1667 618,91.5C 618.333,92.8333 618.667,94.1667 619,95.5C 619.333,94.8333 619.667,94.1667 620,93.5C 620.333,94.8333 620.667,96.1667 621,97.5C 621.333,96.8333 621.667,96.1667 622,95.5C 623,97.5 624,99.5 625,101.5C 625.333,100.833 625.667,100.167 626,99.5C 626.333,100.833 626.667,102.167 627,103.5C 627.333,102.833 627.667,102.167 628,101.5C 628.333,102.833 628.667,104.167 629,105.5C 629.333,104.833 629.667,104.167 630,103.5C 630.333,104.833 630.667,106.167 631,107.5C 631.333,106.833 631.667,106.167 632,105.5C 632.333,106.833 632.667,108.167 633,109.5C 633.333,108.833 633.667,108.167 634,107.5C 634.333,108.833 634.667,110.167 635,111.5C 635.333,110.833 635.667,110.167 636,109.5C 636.47,111.774 637.47,113.774 639,115.5C 639.333,114.833 639.667,114.167 640,113.5C 640.333,114.833 640.667,116.167 641,117.5C 641.333,116.833 641.667,116.167 642,115.5C 642.333,116.833 642.667,118.167 643,119.5C 643.333,118.833 643.667,118.167 644,117.5C 644.333,118.833 644.667,120.167 645,121.5C 645.333,120.833 645.667,120.167 646,119.5C 646.333,120.833 646.667,122.167 647,123.5C 647.333,122.833 647.667,122.167 648,121.5C 648.333,122.833 648.667,124.167 649,125.5C 649.333,124.833 649.667,124.167 650,123.5C 650.333,124.833 650.667,126.167 651,127.5C 651.333,126.833 651.667,126.167 652,125.5C 652.333,126.833 652.667,128.167 653,129.5C 653.333,128.833 653.667,128.167 654,127.5C 654.333,128.833 654.667,130.167 655,131.5C 655.333,130.833 655.667,130.167 656,129.5C 656.333,130.833 656.667,132.167 657,133.5C 657.333,132.833 657.667,132.167 658,131.5C 658.333,132.833 658.667,134.167 659,135.5C 659.333,134.833 659.667,134.167 660,133.5C 660.419,137.852 661.086,138.185 662,134.5C 664.097,137.263 665.763,140.263 667,143.5C 667.333,142.833 667.667,142.167 668,141.5C 669,143.5 670,145.5 671,147.5C 671.974,145.122 672.641,145.456 673,148.5C 673.333,148.167 673.667,147.833 674,147.5C 674.333,148.833 674.667,150.167 675,151.5C 675.333,150.833 675.667,150.167 676,149.5C 676.359,152.544 677.026,152.878 678,150.5C 678.333,152.167 678.667,153.833 679,155.5C 679.333,154.833 679.667,154.167 680,153.5C 680.419,157.852 681.086,158.185 682,154.5C 682.333,156.167 682.667,157.833 683,159.5C 683.333,158.5 683.667,157.5 684,156.5C 684.202,158.256 684.702,159.922 685.5,161.5C 686.541,163.991 687.374,163.991 688,161.5C 688.333,162.833 688.667,164.167 689,165.5C 689.333,164.833 689.667,164.167 690,163.5C 690.419,167.852 691.086,168.185 692,164.5C 692.333,166.167 692.667,167.833 693,169.5C 693.333,168.5 693.667,167.5 694,166.5C 694.333,168.167 694.667,169.833 695,171.5C 695.333,170.5 695.667,169.5 696,168.5C 696.333,170.167 696.667,171.833 697,173.5C 697.333,172.5 697.667,171.5 698,170.5C 698.333,172.167 698.667,173.833 699,175.5C 699.333,174.833 699.667,174.167 700,173.5C 700.333,174.833 700.667,176.167 701,177.5C 701.333,176.833 701.667,176.167 702,175.5C 702.359,178.544 703.026,178.878 704,176.5C 704.37,179.28 705.37,181.28 707,182.5C 707.333,181.833 707.667,181.167 708,180.5C 708.333,182.167 708.667,183.833 709,185.5C 709.333,184.833 709.667,184.167 710,183.5C 710.333,184.833 710.667,186.167 711,187.5C 711.333,186.833 711.667,186.167 712,185.5C 713.775,188.406 715.442,190.739 717,192.5C 717.333,192.167 717.667,191.833 718,191.5C 718.075,193.935 718.908,194.602 720.5,193.5 Z"/></g>
<g><path style="opacity:0.898" fill="#2662f7" d="M 504.5,-0.5 C 508.833,-0.5 513.167,-0.5 517.5,-0.5C 517.657,0.873441 517.49,2.20677 517,3.5C 495.225,23.2731 474.059,43.7731 453.5,65C 386.378,131.788 319.044,198.788 251.5,266C 250.365,266.749 249.365,266.583 248.5,265.5C 249.025,264.808 249.692,264.308 250.5,264C 249.207,263.51 247.873,263.343 246.5,263.5C 246.5,262.5 246.5,261.5 246.5,260.5C 318.416,188.751 390.416,116.584 462.5,44C 475.656,31.3447 488.99,18.8447 502.5,6.5C 504.171,4.49024 504.838,2.1569 504.5,-0.5 Z"/></g>
<g><path style="opacity:1" fill="#1f9cf8" d="M 720.5,186.5 C 721.82,187.942 723.486,188.608 725.5,188.5C 725.351,189.552 725.517,190.552 726,191.5C 728.167,193.167 730.333,194.833 732.5,196.5C 784.313,248.814 836.646,301.314 889.5,354C 890.448,354.483 891.448,354.649 892.5,354.5C 892.351,355.552 892.517,356.552 893,357.5C 905.622,369.438 917.789,381.771 929.5,394.5C 928.18,395.942 926.514,396.608 924.5,396.5C 924.5,397.833 924.5,399.167 924.5,400.5C 921.446,400.354 919.446,401.687 918.5,404.5C 911.587,409.067 904.921,414.067 898.5,419.5C 895.833,422.167 893.167,424.833 890.5,427.5C 877.167,438.167 863.833,448.833 850.5,459.5C 846.422,464.249 841.755,468.249 836.5,471.5C 832.422,476.249 827.755,480.249 822.5,483.5C 818.422,488.249 813.755,492.249 808.5,495.5C 804.422,500.249 799.755,504.249 794.5,507.5C 789.095,513.576 783.095,518.909 776.5,523.5C 766.119,532.369 756.119,541.703 746.5,551.5C 738.568,557.428 731.235,564.095 724.5,571.5C 723.167,572.167 721.833,572.833 720.5,573.5C 705.833,587.5 691.167,601.5 676.5,615.5C 669.905,620.091 663.905,625.424 658.5,631.5C 657.167,632.167 655.833,632.833 654.5,633.5C 637.615,648.753 620.615,663.753 603.5,678.5C 601.394,678.679 599.728,679.679 598.5,681.5C 597.359,682.425 597.359,683.259 598.5,684C 597.207,684.49 595.873,684.657 594.5,684.5C 593.222,684.218 592.222,683.551 591.5,682.5C 591.5,681.167 591.5,679.833 591.5,678.5C 593.124,678.36 594.29,679.027 595,680.5C 595.374,679.584 595.874,678.75 596.5,678C 594.36,674.523 591.36,672.189 587.5,671C 587.833,670.667 588.167,670.333 588.5,670C 586.194,668.335 583.861,666.669 581.5,665C 581.833,664.667 582.167,664.333 582.5,664C 581.5,663.667 580.5,663.333 579.5,663C 579.833,662.667 580.167,662.333 580.5,662C 579.5,661.667 578.5,661.333 577.5,661C 577.833,660.667 578.167,660.333 578.5,660C 577.284,658.26 575.618,657.26 573.5,657C 573.833,656.667 574.167,656.333 574.5,656C 573.5,655.667 572.5,655.333 571.5,655C 571.833,654.667 572.167,654.333 572.5,654C 571.5,653.667 570.5,653.333 569.5,653C 569.833,652.667 570.167,652.333 570.5,652C 569.167,651.333 567.833,651.333 566.5,652C 566.116,652.951 565.783,653.784 565.5,654.5C 564.5,654.167 563.833,653.5 563.5,652.5C 565.248,650.84 565.748,648.84 565,646.5C 562.412,642.921 559.912,639.254 557.5,635.5C 555.972,634.139 554.305,632.972 552.5,632C 542.321,620.989 531.988,610.155 521.5,599.5C 517.839,598.659 514.506,597.159 511.5,595C 511.833,594.667 512.167,594.333 512.5,594C 511.5,593.667 510.5,593.333 509.5,593C 509.833,592.667 510.167,592.333 510.5,592C 509.5,591.667 508.5,591.333 507.5,591C 507.833,590.667 508.167,590.333 508.5,590C 507.5,589.667 506.5,589.333 505.5,589C 505.833,588.667 506.167,588.333 506.5,588C 505.5,587.667 504.5,587.333 503.5,587C 504.458,585.853 504.125,584.853 502.5,584C 500.5,583.333 498.5,583.333 496.5,584C 495.944,584.383 495.611,584.883 495.5,585.5C 491.145,582.479 487.479,578.812 484.5,574.5C 486.394,574.586 488.394,574.919 490.5,575.5C 492.833,577.833 495.167,580.167 497.5,582.5C 498.696,582.154 498.696,581.654 497.5,581C 498.938,580.781 500.271,580.281 501.5,579.5C 492.324,569.824 482.657,560.657 472.5,552C 462.99,541.617 453.323,531.451 443.5,521.5C 442.264,520.643 440.931,519.977 439.5,519.5C 436.167,515.5 432.833,511.5 429.5,507.5C 428.675,506.614 427.675,506.281 426.5,506.5C 426.649,505.448 426.483,504.448 426,503.5C 424.494,501.826 422.661,500.826 420.5,500.5C 420.167,496.833 418.167,494.833 414.5,494.5C 414.649,493.448 414.483,492.448 414,491.5C 410.015,488.016 406.182,484.349 402.5,480.5C 401.571,479.311 401.238,477.978 401.5,476.5C 411.231,468.123 421.564,460.456 432.5,453.5C 435.079,449.896 438.412,447.562 442.5,446.5C 442.5,445.167 442.5,443.833 442.5,442.5C 445.833,441.167 449.167,439.833 452.5,438.5C 452.5,437.167 452.5,435.833 452.5,434.5C 456.5,432.5 460.5,430.5 464.5,428.5C 464.5,427.167 464.5,425.833 464.5,424.5C 465.978,424.762 467.311,424.429 468.5,423.5C 470.601,420.73 473.268,418.73 476.5,417.5C 488.5,406.833 500.5,396.167 512.5,385.5C 513.833,384.833 515.167,384.167 516.5,383.5C 521.241,378.088 526.574,373.421 532.5,369.5C 551.167,352.167 569.833,334.833 588.5,317.5C 594.317,314.689 598.317,310.356 600.5,304.5C 601.978,304.762 603.311,304.429 604.5,303.5C 608.5,299.5 612.5,295.5 616.5,291.5C 621.658,289.349 624.991,285.682 626.5,280.5C 627.978,280.762 629.311,280.429 630.5,279.5C 634.5,275.5 638.5,271.5 642.5,267.5C 647.658,265.349 650.991,261.682 652.5,256.5C 653.978,256.762 655.311,256.429 656.5,255.5C 661.69,251.39 666.357,246.724 670.5,241.5C 675.658,239.349 678.991,235.682 680.5,230.5C 681.978,230.762 683.311,230.429 684.5,229.5C 688.749,225.808 692.749,221.808 696.5,217.5C 701.002,216.005 703.669,213.005 704.5,208.5C 705.978,208.762 707.311,208.429 708.5,207.5C 712.64,203.802 716.64,200.135 720.5,196.5C 720.5,195.5 720.5,194.5 720.5,193.5C 721.429,192.685 722.429,191.852 723.5,191C 721.859,189.871 720.859,188.371 720.5,186.5 Z"/></g>
<g><path style="opacity:0.966" fill="#246bfe" d="M 216.5,292.5 C 217.5,292.5 218.5,292.5 219.5,292.5C 219.215,294.288 219.548,295.955 220.5,297.5C 224.763,302.265 229.263,306.932 234,311.5C 234.483,312.448 234.649,313.448 234.5,314.5C 235.552,314.351 236.552,314.517 237.5,315C 265.36,343.527 293.527,371.694 322,399.5C 322.693,403.248 321.86,406.581 319.5,409.5C 288.744,379.745 258.744,349.411 229.5,318.5C 226.906,317.408 224.739,315.741 223,313.5C 219.809,308.65 216.643,303.817 213.5,299C 214.2,296.632 215.2,294.466 216.5,292.5 Z"/></g>
<g><path style="opacity:1" fill="#0fc3f4" d="M 1113.5,580.5 C 1114.24,580.369 1114.91,580.536 1115.5,581C 1120.84,590.528 1125.51,600.361 1129.5,610.5C 1130.48,610.977 1131.31,611.643 1132,612.5C 1133.96,619.418 1135.62,626.418 1137,633.5C 1139.24,637.131 1140.08,641.131 1139.5,645.5C 1135.84,645.35 1134.84,646.85 1136.5,650C 1134.7,650.317 1134.37,650.984 1135.5,652C 1134.85,658.778 1134.18,665.611 1133.5,672.5C 1133.11,669.108 1133.11,665.442 1133.5,661.5C 1133.17,658.167 1132.83,654.833 1132.5,651.5C 1132.17,651.833 1131.83,652.167 1131.5,652.5C 1132.37,657.086 1132.7,661.586 1132.5,666C 1130.98,668.596 1130.15,671.429 1130,674.5C 1130.27,682.693 1128.77,690.527 1125.5,698C 1125.64,698.772 1125.98,699.439 1126.5,700C 1121.74,710.322 1117.24,720.489 1113,730.5C 1109.47,734.397 1106.3,738.564 1103.5,743C 1103.83,743.333 1104.17,743.667 1104.5,744C 1099.93,747.948 1095.93,752.448 1092.5,757.5C 1084.66,764.511 1076.99,771.678 1069.5,779C 1069.83,779.333 1070.17,779.667 1070.5,780C 1056.38,792.116 1043.55,804.95 1032,818.5C 1031.67,818.167 1031.33,817.833 1031,817.5C 991.216,858.593 950.716,899.26 909.5,939.5C 905.686,944.149 901.686,948.649 897.5,953C 899.525,954.194 899.859,955.694 898.5,957.5C 894.99,960.843 891.656,964.343 888.5,968C 888.82,969.653 889.82,970.653 891.5,971C 888.964,971.186 886.631,971.686 884.5,972.5C 882.078,970.875 879.412,969.541 876.5,968.5C 861.63,952.463 846.296,936.963 830.5,922C 812.997,903.497 794.83,885.664 776,868.5C 775.536,867.906 775.369,867.239 775.5,866.5C 776.833,866.5 778.167,866.5 779.5,866.5C 778.418,861.881 778.418,858.215 779.5,855.5C 771.436,847.233 763.103,839.233 754.5,831.5C 753.311,830.571 751.978,830.238 750.5,830.5C 750.649,829.448 750.483,828.448 750,827.5C 707.094,785.301 664.427,742.967 622,700.5C 616.147,693.647 609.647,687.481 602.5,682C 603.337,680.989 603.67,679.822 603.5,678.5C 620.615,663.753 637.615,648.753 654.5,633.5C 655.833,632.833 657.167,632.167 658.5,631.5C 663.905,625.424 669.905,620.091 676.5,615.5C 691.167,601.5 705.833,587.5 720.5,573.5C 721.833,572.833 723.167,572.167 724.5,571.5C 731.235,564.095 738.568,557.428 746.5,551.5C 756.119,541.703 766.119,532.369 776.5,523.5C 783.095,518.909 789.095,513.576 794.5,507.5C 799.755,504.249 804.422,500.249 808.5,495.5C 813.755,492.249 818.422,488.249 822.5,483.5C 827.755,480.249 832.422,476.249 836.5,471.5C 841.755,468.249 846.422,464.249 850.5,459.5C 863.833,448.833 877.167,438.167 890.5,427.5C 893.167,424.833 895.833,422.167 898.5,419.5C 904.921,414.067 911.587,409.067 918.5,404.5C 919.583,404.461 920.583,404.127 921.5,403.5C 923.56,405.196 925.893,406.363 928.5,407C 947.25,425.413 965.25,444.413 982.5,464C 984.5,465 986.5,466 988.5,467C 998.272,476.694 1007.94,486.528 1017.5,496.5C 1018.1,497.795 1018.6,499.128 1019,500.5C 1027.36,508.86 1035.69,517.194 1044,525.5C 1045.33,525.5 1046.67,525.5 1048,525.5C 1054.95,531.951 1061.79,538.617 1068.5,545.5C 1069.81,546.912 1070.64,548.579 1071,550.5C 1086.12,564.215 1099.78,579.215 1112,595.5C 1112.69,594.975 1113.19,594.308 1113.5,593.5C 1113.03,591.226 1112.03,589.226 1110.5,587.5C 1111.71,585.931 1113.38,585.098 1115.5,585C 1114.42,583.67 1113.75,582.17 1113.5,580.5 Z"/></g>
<g><path style="opacity:0.943" fill="#266efd" d="M 398.5,478.5 C 397.554,479.931 396.388,481.264 395,482.5C 394.23,481.402 393.397,481.402 392.5,482.5C 368.161,458.827 344.161,434.827 320.5,410.5C 321.942,409.18 322.608,407.514 322.5,405.5C 324.124,405.64 325.29,404.973 326,403.5C 350.081,427.581 374.081,451.581 398,475.5C 398.483,476.448 398.649,477.448 398.5,478.5 Z"/></g>
<g><path style="opacity:0.913" fill="#10c2f6" d="M 929.5,394.5 C 986.831,450.331 1043.66,506.664 1100,563.5C 1105.06,568.729 1109.56,574.396 1113.5,580.5C 1113.75,582.17 1114.42,583.67 1115.5,585C 1113.38,585.098 1111.71,585.931 1110.5,587.5C 1112.03,589.226 1113.03,591.226 1113.5,593.5C 1113.19,594.308 1112.69,594.975 1112,595.5C 1099.78,579.215 1086.12,564.215 1071,550.5C 1070.64,548.579 1069.81,546.912 1068.5,545.5C 1061.79,538.617 1054.95,531.951 1048,525.5C 1046.67,525.5 1045.33,525.5 1044,525.5C 1035.69,517.194 1027.36,508.86 1019,500.5C 1018.6,499.128 1018.1,497.795 1017.5,496.5C 1007.94,486.528 998.272,476.694 988.5,467C 986.5,466 984.5,465 982.5,464C 965.25,444.413 947.25,425.413 928.5,407C 925.893,406.363 923.56,405.196 921.5,403.5C 920.583,404.127 919.583,404.461 918.5,404.5C 919.446,401.687 921.446,400.354 924.5,400.5C 924.5,399.167 924.5,397.833 924.5,396.5C 926.514,396.608 928.18,395.942 929.5,394.5 Z"/></g>
<g><path style="opacity:0.937" fill="#1794fa" d="M 401.5,476.5 C 401.238,477.978 401.571,479.311 402.5,480.5C 406.182,484.349 410.015,488.016 414,491.5C 414.483,492.448 414.649,493.448 414.5,494.5C 418.167,494.833 420.167,496.833 420.5,500.5C 422.661,500.826 424.494,501.826 426,503.5C 426.483,504.448 426.649,505.448 426.5,506.5C 427.675,506.281 428.675,506.614 429.5,507.5C 432.833,511.5 436.167,515.5 439.5,519.5C 440.931,519.977 442.264,520.643 443.5,521.5C 453.323,531.451 462.99,541.617 472.5,552C 482.657,560.657 492.324,569.824 501.5,579.5C 500.271,580.281 498.938,580.781 497.5,581C 498.696,581.654 498.696,582.154 497.5,582.5C 495.167,580.167 492.833,577.833 490.5,575.5C 488.394,574.919 486.394,574.586 484.5,574.5C 453.056,544.389 422.389,513.723 392.5,482.5C 393.397,481.402 394.23,481.402 395,482.5C 396.388,481.264 397.554,479.931 398.5,478.5C 399.778,478.218 400.778,477.551 401.5,476.5 Z"/></g>
<g><path style="opacity:0.094" fill="#1992fc" d="M 563.5,652.5 C 547.954,637.454 532.621,622.287 517.5,607C 516.552,606.517 515.552,606.351 514.5,606.5C 514.762,605.022 514.429,603.689 513.5,602.5C 507.453,596.784 501.453,591.117 495.5,585.5C 495.611,584.883 495.944,584.383 496.5,584C 498.5,583.333 500.5,583.333 502.5,584C 504.125,584.853 504.458,585.853 503.5,587C 504.5,587.333 505.5,587.667 506.5,588C 506.167,588.333 505.833,588.667 505.5,589C 506.5,589.333 507.5,589.667 508.5,590C 508.167,590.333 507.833,590.667 507.5,591C 508.5,591.333 509.5,591.667 510.5,592C 510.167,592.333 509.833,592.667 509.5,593C 510.5,593.333 511.5,593.667 512.5,594C 512.167,594.333 511.833,594.667 511.5,595C 514.506,597.159 517.839,598.659 521.5,599.5C 531.988,610.155 542.321,620.989 552.5,632C 554.305,632.972 555.972,634.139 557.5,635.5C 559.912,639.254 562.412,642.921 565,646.5C 565.748,648.84 565.248,650.84 563.5,652.5 Z"/></g>
<g><path style="opacity:0.439" fill="#1990fd" d="M 591.5,682.5 C 582.843,673.208 574.176,663.875 565.5,654.5C 565.783,653.784 566.116,652.951 566.5,652C 567.833,651.333 569.167,651.333 570.5,652C 570.167,652.333 569.833,652.667 569.5,653C 570.5,653.333 571.5,653.667 572.5,654C 572.167,654.333 571.833,654.667 571.5,655C 572.5,655.333 573.5,655.667 574.5,656C 574.167,656.333 573.833,656.667 573.5,657C 575.618,657.26 577.284,658.26 578.5,660C 578.167,660.333 577.833,660.667 577.5,661C 578.5,661.333 579.5,661.667 580.5,662C 580.167,662.333 579.833,662.667 579.5,663C 580.5,663.333 581.5,663.667 582.5,664C 582.167,664.333 581.833,664.667 581.5,665C 583.861,666.669 586.194,668.335 588.5,670C 588.167,670.333 587.833,670.667 587.5,671C 591.36,672.189 594.36,674.523 596.5,678C 595.874,678.75 595.374,679.584 595,680.5C 594.29,679.027 593.124,678.36 591.5,678.5C 591.5,679.833 591.5,681.167 591.5,682.5 Z"/></g>
<g><path style="opacity:0.005" fill="#00fffe" d="M 647.5,738.5 C 643.549,736.549 640.549,733.549 638.5,729.5C 639.117,729.389 639.617,729.056 640,728.5C 642.388,732.036 644.888,735.369 647.5,738.5 Z"/></g>
<g><path style="opacity:0.852" fill="#0cbfe9" d="M 1139.5,645.5 C 1139.51,657.773 1139.68,670.107 1140,682.5C 1137.02,691.074 1134.36,699.741 1132,708.5C 1127.31,718.541 1122.64,728.541 1118,738.5C 1110.68,747.151 1103.84,756.151 1097.5,765.5C 1037.01,826.457 976.509,887.457 916,948.5C 909.956,954.711 904.456,961.378 899.5,968.5C 895.121,971.993 890.121,973.326 884.5,972.5C 886.631,971.686 888.964,971.186 891.5,971C 889.82,970.653 888.82,969.653 888.5,968C 891.656,964.343 894.99,960.843 898.5,957.5C 899.859,955.694 899.525,954.194 897.5,953C 901.686,948.649 905.686,944.149 909.5,939.5C 950.716,899.26 991.216,858.593 1031,817.5C 1031.33,817.833 1031.67,818.167 1032,818.5C 1043.55,804.95 1056.38,792.116 1070.5,780C 1070.17,779.667 1069.83,779.333 1069.5,779C 1076.99,771.678 1084.66,764.511 1092.5,757.5C 1095.93,752.448 1099.93,747.948 1104.5,744C 1104.17,743.667 1103.83,743.333 1103.5,743C 1106.3,738.564 1109.47,734.397 1113,730.5C 1117.24,720.489 1121.74,710.322 1126.5,700C 1125.98,699.439 1125.64,698.772 1125.5,698C 1128.77,690.527 1130.27,682.693 1130,674.5C 1130.15,671.429 1130.98,668.596 1132.5,666C 1132.7,661.586 1132.37,657.086 1131.5,652.5C 1131.83,652.167 1132.17,651.833 1132.5,651.5C 1132.83,654.833 1133.17,658.167 1133.5,661.5C 1133.11,665.442 1133.11,669.108 1133.5,672.5C 1134.18,665.611 1134.85,658.778 1135.5,652C 1134.37,650.984 1134.7,650.317 1136.5,650C 1134.84,646.85 1135.84,645.35 1139.5,645.5 Z"/></g>
<g><path style="opacity:1" fill="#268af9" d="M 525.5,727.5 C 531.604,731.436 537.271,735.936 542.5,741C 550.025,750.025 558.358,758.192 567.5,765.5C 572.817,771.951 578.484,778.118 584.5,784C 589.167,788 593.833,792 598.5,796C 626.721,824.221 654.887,852.387 683,880.5C 697.993,896.8 713.66,912.467 730,927.5C 737.125,936.457 745.125,944.457 754,951.5C 755.5,953.667 757,955.833 758.5,958C 765.272,963.479 771.772,969.313 778,975.5C 782.165,980.244 786.332,985.077 790.5,990C 791.448,990.483 792.448,990.649 793.5,990.5C 793.351,991.552 793.517,992.552 794,993.5C 798.939,998.332 804.106,1003 809.5,1007.5C 814.8,1012.76 819.633,1018.43 824,1024.5C 825.404,1026.64 826.237,1028.97 826.5,1031.5C 825.483,1035.87 823.65,1039.87 821,1043.5C 766.019,1098.31 711.186,1153.31 656.5,1208.5C 655.934,1206.92 654.934,1205.59 653.5,1204.5C 652.914,1204.71 652.414,1205.04 652,1205.5C 650.27,1203.92 648.437,1202.59 646.5,1201.5C 624.223,1180.9 601.556,1160.56 578.5,1140.5C 573.245,1137.25 568.578,1133.25 564.5,1128.5C 555.79,1120.79 546.79,1113.45 537.5,1106.5C 536.614,1105.68 536.281,1104.68 536.5,1103.5C 535.022,1103.76 533.689,1103.43 532.5,1102.5C 529.797,1099.46 526.797,1096.8 523.5,1094.5C 522.614,1093.68 522.281,1092.68 522.5,1091.5C 521.022,1091.76 519.689,1091.43 518.5,1090.5C 515.797,1087.46 512.797,1084.8 509.5,1082.5C 508.614,1081.68 508.281,1080.68 508.5,1079.5C 507.022,1079.76 505.689,1079.43 504.5,1078.5C 486.499,1062.84 468.166,1047.5 449.5,1032.5C 448.455,1030.6 447.122,1028.93 445.5,1027.5C 404.77,994.483 364.103,961.483 323.5,928.5C 321.051,928.02 318.885,927.02 317,925.5C 315.913,927.932 315.413,927.598 315.5,924.5C 316.873,922.793 318.539,921.46 320.5,920.5C 320.81,921.738 321.31,921.738 322,920.5C 322.495,922.473 322.662,924.473 322.5,926.5C 325.084,926.431 327.084,925.265 328.5,923C 328.167,922.667 327.833,922.333 327.5,922C 328.5,921.667 329.5,921.333 330.5,921C 330.167,920.667 329.833,920.333 329.5,920C 331.167,919 332.833,918 334.5,917C 334.167,916.667 333.833,916.333 333.5,916C 336.807,914.27 340.307,911.77 344,908.5C 344.617,907.551 344.451,906.718 343.5,906C 348.392,903.951 352.559,900.784 356,896.5C 356.617,895.551 356.451,894.718 355.5,894C 356.5,893.667 357.5,893.333 358.5,893C 358.167,892.667 357.833,892.333 357.5,892C 363.135,889.619 368.135,885.452 372.5,879.5C 372.291,878.914 371.957,878.414 371.5,878C 378.995,873.849 385.329,868.183 390.5,861C 390.167,860.667 389.833,860.333 389.5,860C 390.5,859.667 391.5,859.333 392.5,859C 392.167,858.667 391.833,858.333 391.5,858C 394.748,857.918 397.081,856.418 398.5,853.5C 398.291,852.914 397.957,852.414 397.5,852C 402.851,849.231 407.851,845.064 412.5,839.5C 411.45,837.898 412.117,837.065 414.5,837C 414.167,836.667 413.833,836.333 413.5,836C 414.5,835.667 415.5,835.333 416.5,835C 416.167,834.667 415.833,834.333 415.5,834C 417.167,833 418.833,832 420.5,831C 420.167,830.667 419.833,830.333 419.5,830C 425.203,826.807 430.203,822.64 434.5,817.5C 433.45,815.898 434.117,815.065 436.5,815C 436.167,814.667 435.833,814.333 435.5,814C 436.5,813.667 437.5,813.333 438.5,813C 438.167,812.667 437.833,812.333 437.5,812C 438.5,811.667 439.5,811.333 440.5,811C 440.167,810.667 439.833,810.333 439.5,810C 440.716,808.26 442.382,807.26 444.5,807C 444.167,806.667 443.833,806.333 443.5,806C 444.5,805.667 445.5,805.333 446.5,805C 446.167,804.667 445.833,804.333 445.5,804C 446.5,803.667 447.5,803.333 448.5,803C 448.167,802.667 447.833,802.333 447.5,802C 448.5,801.667 449.5,801.333 450.5,801C 450.167,800.667 449.833,800.333 449.5,800C 450.5,799.667 451.5,799.333 452.5,799C 452.167,798.667 451.833,798.333 451.5,798C 452.5,797.667 453.5,797.333 454.5,797C 454.167,796.667 453.833,796.333 453.5,796C 454.5,795.667 455.5,795.333 456.5,795C 456.167,794.667 455.833,794.333 455.5,794C 456.5,793.667 457.5,793.333 458.5,793C 458.167,792.667 457.833,792.333 457.5,792C 458.5,791.667 459.5,791.333 460.5,791C 460.167,790.667 459.833,790.333 459.5,790C 460.5,789.667 461.5,789.333 462.5,789C 462.167,788.667 461.833,788.333 461.5,788C 463.561,785.937 465.894,784.27 468.5,783C 468.167,782.667 467.833,782.333 467.5,782C 468.974,780.684 470.641,779.684 472.5,779C 472.167,778.667 471.833,778.333 471.5,778C 472.974,776.684 474.641,775.684 476.5,775C 476.167,774.667 475.833,774.333 475.5,774C 476.5,773.667 477.5,773.333 478.5,773C 478.167,772.667 477.833,772.333 477.5,772C 478.5,771.667 479.5,771.333 480.5,771C 480.167,770.667 479.833,770.333 479.5,770C 480.974,768.684 482.641,767.684 484.5,767C 484.167,766.667 483.833,766.333 483.5,766C 484.5,765.667 485.5,765.333 486.5,765C 486.167,764.667 485.833,764.333 485.5,764C 486.5,763.667 487.5,763.333 488.5,763C 488.167,762.667 487.833,762.333 487.5,762C 489.5,761.333 491.5,760.667 493.5,760C 498.178,753.658 503.511,747.991 509.5,743C 511.527,741.121 513.86,739.954 516.5,739.5C 516.641,736.52 518.141,734.52 521,733.5C 524.461,736.294 527.627,739.461 530.5,743C 531.877,744.241 533.21,744.408 534.5,743.5C 530.99,740.157 527.656,736.657 524.5,733C 525.233,731.234 525.567,729.401 525.5,727.5 Z"/></g>
<g><path style="opacity:0.005" fill="#20f7ff" d="M 655.5,746.5 C 660.194,749.194 663.861,752.861 666.5,757.5C 665.761,757.631 665.094,757.464 664.5,757C 661.384,753.481 658.384,749.981 655.5,746.5 Z"/></g>
<g><path style="opacity:0.932" fill="#0bc1f7" d="M 603.5,678.5 C 603.67,679.822 603.337,680.989 602.5,682C 609.647,687.481 616.147,693.647 622,700.5C 664.427,742.967 707.094,785.301 750,827.5C 750.483,828.448 750.649,829.448 750.5,830.5C 751.978,830.238 753.311,830.571 754.5,831.5C 763.103,839.233 771.436,847.233 779.5,855.5C 778.418,858.215 778.418,861.881 779.5,866.5C 778.167,866.5 776.833,866.5 775.5,866.5C 760.662,852.866 746.328,838.532 732.5,823.5C 731.167,819.5 728.5,816.833 724.5,815.5C 721.026,812.198 717.359,809.032 713.5,806C 697.323,790.262 681.656,774.096 666.5,757.5C 663.861,752.861 660.194,749.194 655.5,746.5C 653.66,744.832 651.66,743.332 649.5,742C 648.177,741.184 647.511,740.017 647.5,738.5C 644.888,735.369 642.388,732.036 640,728.5C 639.617,729.056 639.117,729.389 638.5,729.5C 635.829,727.066 632.996,724.733 630,722.5C 618.335,709.668 606.501,697.002 594.5,684.5C 595.873,684.657 597.207,684.49 598.5,684C 597.359,683.259 597.359,682.425 598.5,681.5C 599.728,679.679 601.394,678.679 603.5,678.5 Z"/></g>
<g><path style="opacity:0.005" fill="#00fffe" d="M 724.5,815.5 C 728.5,816.833 731.167,819.5 732.5,823.5C 729.403,821.349 726.737,818.683 724.5,815.5 Z"/></g>
<g><path style="opacity:0.878" fill="#247df4" d="M 525.5,727.5 C 525.567,729.401 525.233,731.234 524.5,733C 527.656,736.657 530.99,740.157 534.5,743.5C 533.21,744.408 531.877,744.241 530.5,743C 527.627,739.461 524.461,736.294 521,733.5C 518.141,734.52 516.641,736.52 516.5,739.5C 513.86,739.954 511.527,741.121 509.5,743C 503.511,747.991 498.178,753.658 493.5,760C 491.5,760.667 489.5,761.333 487.5,762C 487.833,762.333 488.167,762.667 488.5,763C 487.5,763.333 486.5,763.667 485.5,764C 485.833,764.333 486.167,764.667 486.5,765C 485.5,765.333 484.5,765.667 483.5,766C 483.833,766.333 484.167,766.667 484.5,767C 482.641,767.684 480.974,768.684 479.5,770C 479.833,770.333 480.167,770.667 480.5,771C 479.5,771.333 478.5,771.667 477.5,772C 477.833,772.333 478.167,772.667 478.5,773C 477.5,773.333 476.5,773.667 475.5,774C 475.833,774.333 476.167,774.667 476.5,775C 474.641,775.684 472.974,776.684 471.5,778C 471.833,778.333 472.167,778.667 472.5,779C 470.641,779.684 468.974,780.684 467.5,782C 467.833,782.333 468.167,782.667 468.5,783C 465.894,784.27 463.561,785.937 461.5,788C 461.833,788.333 462.167,788.667 462.5,789C 461.5,789.333 460.5,789.667 459.5,790C 459.833,790.333 460.167,790.667 460.5,791C 459.5,791.333 458.5,791.667 457.5,792C 457.833,792.333 458.167,792.667 458.5,793C 457.5,793.333 456.5,793.667 455.5,794C 455.833,794.333 456.167,794.667 456.5,795C 455.5,795.333 454.5,795.667 453.5,796C 453.833,796.333 454.167,796.667 454.5,797C 453.5,797.333 452.5,797.667 451.5,798C 451.833,798.333 452.167,798.667 452.5,799C 451.5,799.333 450.5,799.667 449.5,800C 449.833,800.333 450.167,800.667 450.5,801C 449.5,801.333 448.5,801.667 447.5,802C 447.833,802.333 448.167,802.667 448.5,803C 447.5,803.333 446.5,803.667 445.5,804C 445.833,804.333 446.167,804.667 446.5,805C 445.5,805.333 444.5,805.667 443.5,806C 443.833,806.333 444.167,806.667 444.5,807C 442.382,807.26 440.716,808.26 439.5,810C 439.833,810.333 440.167,810.667 440.5,811C 439.5,811.333 438.5,811.667 437.5,812C 437.833,812.333 438.167,812.667 438.5,813C 437.5,813.333 436.5,813.667 435.5,814C 435.833,814.333 436.167,814.667 436.5,815C 434.117,815.065 433.45,815.898 434.5,817.5C 430.203,822.64 425.203,826.807 419.5,830C 419.833,830.333 420.167,830.667 420.5,831C 418.833,832 417.167,833 415.5,834C 415.833,834.333 416.167,834.667 416.5,835C 415.5,835.333 414.5,835.667 413.5,836C 413.833,836.333 414.167,836.667 414.5,837C 412.117,837.065 411.45,837.898 412.5,839.5C 407.851,845.064 402.851,849.231 397.5,852C 397.957,852.414 398.291,852.914 398.5,853.5C 397.081,856.418 394.748,857.918 391.5,858C 391.833,858.333 392.167,858.667 392.5,859C 391.5,859.333 390.5,859.667 389.5,860C 389.833,860.333 390.167,860.667 390.5,861C 385.329,868.183 378.995,873.849 371.5,878C 371.957,878.414 372.291,878.914 372.5,879.5C 368.135,885.452 363.135,889.619 357.5,892C 357.833,892.333 358.167,892.667 358.5,893C 357.5,893.333 356.5,893.667 355.5,894C 356.451,894.718 356.617,895.551 356,896.5C 352.559,900.784 348.392,903.951 343.5,906C 344.451,906.718 344.617,907.551 344,908.5C 340.307,911.77 336.807,914.27 333.5,916C 333.833,916.333 334.167,916.667 334.5,917C 332.833,918 331.167,919 329.5,920C 329.833,920.333 330.167,920.667 330.5,921C 329.5,921.333 328.5,921.667 327.5,922C 327.833,922.333 328.167,922.667 328.5,923C 327.084,925.265 325.084,926.431 322.5,926.5C 322.662,924.473 322.495,922.473 322,920.5C 321.31,921.738 320.81,921.738 320.5,920.5C 360.6,879.501 401.1,839.168 442,799.5C 464.533,775.3 488.033,752.133 512.5,730C 516.47,726.785 520.803,725.951 525.5,727.5 Z"/></g>
<g><path style="opacity:1" fill="#10c3f4" d="M 315.5,924.5 C 315.413,927.598 315.913,927.932 317,925.5C 318.885,927.02 321.051,928.02 323.5,928.5C 364.103,961.483 404.77,994.483 445.5,1027.5C 447.122,1028.93 448.455,1030.6 449.5,1032.5C 468.166,1047.5 486.499,1062.84 504.5,1078.5C 505.689,1079.43 507.022,1079.76 508.5,1079.5C 508.281,1080.68 508.614,1081.68 509.5,1082.5C 512.797,1084.8 515.797,1087.46 518.5,1090.5C 519.689,1091.43 521.022,1091.76 522.5,1091.5C 522.281,1092.68 522.614,1093.68 523.5,1094.5C 526.797,1096.8 529.797,1099.46 532.5,1102.5C 533.689,1103.43 535.022,1103.76 536.5,1103.5C 536.281,1104.68 536.614,1105.68 537.5,1106.5C 546.79,1113.45 555.79,1120.79 564.5,1128.5C 568.578,1133.25 573.245,1137.25 578.5,1140.5C 601.556,1160.56 624.223,1180.9 646.5,1201.5C 647.303,1202.42 647.47,1203.42 647,1204.5C 631.078,1220.09 615.411,1236.09 600,1252.5C 586.724,1264.44 573.724,1276.77 561,1289.5C 559.885,1292.23 558.218,1294.56 556,1296.5C 555.667,1296.17 555.333,1295.83 555,1295.5C 552.53,1297.79 550.696,1300.46 549.5,1303.5C 540.823,1310.67 532.489,1318.5 524.5,1327C 522.167,1327.67 519.833,1327.67 517.5,1327C 511.98,1322.48 506.813,1317.64 502,1312.5C 501.086,1313.65 500.253,1313.49 499.5,1312C 499.833,1311.67 500.167,1311.33 500.5,1311C 498.448,1310.07 496.948,1308.57 496,1306.5C 495.667,1306.83 495.333,1307.17 495,1307.5C 492.833,1305.33 490.667,1303.17 488.5,1301C 488.833,1300.67 489.167,1300.33 489.5,1300C 488.377,1298.96 487.044,1298.29 485.5,1298C 483.061,1294.2 479.894,1290.36 476,1286.5C 475.667,1286.83 475.333,1287.17 475,1287.5C 473.124,1282.95 469.624,1279.45 464.5,1277C 464.833,1276.67 465.167,1276.33 465.5,1276C 463.667,1274.17 461.833,1272.33 460,1270.5C 458.732,1270.62 457.398,1270.95 456,1271.5C 455.667,1270.5 455.333,1269.5 455,1268.5C 454.333,1269.83 453.667,1269.83 453,1268.5C 450.929,1269.1 449.762,1270.44 449.5,1272.5C 433.706,1257.06 417.039,1240.72 399.5,1223.5C 398.873,1222.58 398.539,1221.58 398.5,1220.5C 399.712,1221.23 400.712,1222.23 401.5,1223.5C 402.347,1221.94 402.014,1220.44 400.5,1219C 402.443,1215.67 403.61,1215.83 404,1219.5C 404.333,1219.17 404.667,1218.83 405,1218.5C 405.333,1219.5 405.667,1220.5 406,1221.5C 406.333,1221.17 406.667,1220.83 407,1220.5C 407.186,1222.9 407.686,1225.23 408.5,1227.5C 410.167,1229.17 411.167,1228.83 411.5,1226.5C 409.999,1225.64 408.999,1223.81 408.5,1221C 408.833,1220.67 409.167,1220.33 409.5,1220C 395.668,1204.51 381.502,1189.34 367,1174.5C 364.92,1172.88 362.754,1171.38 360.5,1170C 352.167,1161.33 343.833,1152.67 335.5,1144C 333.423,1143.81 331.423,1143.31 329.5,1142.5C 328.359,1141.57 328.359,1140.74 329.5,1140C 328.5,1139.67 327.5,1139.33 326.5,1139C 325.833,1137 324.5,1135.67 322.5,1135C 322.833,1134.67 323.167,1134.33 323.5,1134C 322.128,1133.6 320.795,1133.1 319.5,1132.5C 307.185,1119.42 294.518,1106.59 281.5,1094C 282.654,1093.09 282.487,1092.25 281,1091.5C 280.667,1091.83 280.333,1092.17 280,1092.5C 276.905,1090.07 274.572,1087.07 273,1083.5C 271.324,1083.71 269.824,1082.87 268.5,1081C 268.833,1080.67 269.167,1080.33 269.5,1080C 268.333,1078.83 267.167,1077.67 266,1076.5C 265.667,1076.83 265.333,1077.17 265,1077.5C 261.344,1075.04 259.011,1072.04 258,1068.5C 257.667,1068.83 257.333,1069.17 257,1069.5C 247.358,1059.86 237.358,1049.86 227,1039.5C 226.781,1038.06 226.281,1036.73 225.5,1035.5C 221.673,1034.56 220.34,1032.4 221.5,1029C 220.333,1028.5 219.5,1027.67 219,1026.5C 218.503,1033.5 217.837,1033.84 217,1027.5C 216.25,1028.13 215.416,1028.63 214.5,1029C 216.309,1031.85 217.309,1035.02 217.5,1038.5C 213.071,1036.55 211.571,1033.22 213,1028.5C 215.308,1025.03 217.808,1021.69 220.5,1018.5C 252.295,987.037 283.962,955.703 315.5,924.5 Z"/></g>
<g><path style="opacity:0.813" fill="#0cc1f9" d="M 398.5,1220.5 C 390.889,1214.56 383.889,1207.89 377.5,1200.5C 378.043,1200.44 378.376,1200.11 378.5,1199.5C 373.787,1195.62 369.62,1191.29 366,1186.5C 365.667,1186.83 365.333,1187.17 365,1187.5C 364.28,1185.94 363.113,1184.94 361.5,1184.5C 358.5,1182.17 355.833,1179.5 353.5,1176.5C 354.043,1176.44 354.376,1176.11 354.5,1175.5C 343.503,1164.17 332.17,1153.17 320.5,1142.5C 319.069,1141.92 317.736,1141.08 316.5,1140C 282.465,1106.8 249.465,1072.97 217.5,1038.5C 217.309,1035.02 216.309,1031.85 214.5,1029C 215.416,1028.63 216.25,1028.13 217,1027.5C 217.837,1033.84 218.503,1033.5 219,1026.5C 219.5,1027.67 220.333,1028.5 221.5,1029C 220.34,1032.4 221.673,1034.56 225.5,1035.5C 226.281,1036.73 226.781,1038.06 227,1039.5C 237.358,1049.86 247.358,1059.86 257,1069.5C 257.333,1069.17 257.667,1068.83 258,1068.5C 259.011,1072.04 261.344,1075.04 265,1077.5C 265.333,1077.17 265.667,1076.83 266,1076.5C 267.167,1077.67 268.333,1078.83 269.5,1080C 269.167,1080.33 268.833,1080.67 268.5,1081C 269.824,1082.87 271.324,1083.71 273,1083.5C 274.572,1087.07 276.905,1090.07 280,1092.5C 280.333,1092.17 280.667,1091.83 281,1091.5C 282.487,1092.25 282.654,1093.09 281.5,1094C 294.518,1106.59 307.185,1119.42 319.5,1132.5C 320.795,1133.1 322.128,1133.6 323.5,1134C 323.167,1134.33 322.833,1134.67 322.5,1135C 324.5,1135.67 325.833,1137 326.5,1139C 327.5,1139.33 328.5,1139.67 329.5,1140C 328.359,1140.74 328.359,1141.57 329.5,1142.5C 331.423,1143.31 333.423,1143.81 335.5,1144C 343.833,1152.67 352.167,1161.33 360.5,1170C 362.754,1171.38 364.92,1172.88 367,1174.5C 381.502,1189.34 395.668,1204.51 409.5,1220C 409.167,1220.33 408.833,1220.67 408.5,1221C 408.999,1223.81 409.999,1225.64 411.5,1226.5C 411.167,1228.83 410.167,1229.17 408.5,1227.5C 407.686,1225.23 407.186,1222.9 407,1220.5C 406.667,1220.83 406.333,1221.17 406,1221.5C 405.667,1220.5 405.333,1219.5 405,1218.5C 404.667,1218.83 404.333,1219.17 404,1219.5C 403.61,1215.83 402.443,1215.67 400.5,1219C 402.014,1220.44 402.347,1221.94 401.5,1223.5C 400.712,1222.23 399.712,1221.23 398.5,1220.5 Z"/></g>
<g><path style="opacity:0.004" fill="#1bf9ff" d="M 320.5,1142.5 C 332.17,1153.17 343.503,1164.17 354.5,1175.5C 354.376,1176.11 354.043,1176.44 353.5,1176.5C 348.836,1172 344.002,1167.67 339,1163.5C 332.603,1156.61 326.436,1149.61 320.5,1142.5 Z"/></g>
<g><path style="opacity:0.005" fill="#33edff" d="M 361.5,1184.5 C 363.113,1184.94 364.28,1185.94 365,1187.5C 365.333,1187.17 365.667,1186.83 366,1186.5C 369.62,1191.29 373.787,1195.62 378.5,1199.5C 378.376,1200.11 378.043,1200.44 377.5,1200.5C 375.66,1198.83 373.66,1197.33 371.5,1196C 368.25,1191.93 364.917,1188.1 361.5,1184.5 Z"/></g>
<g><path style="opacity:0.921" fill="#0fc1e9" d="M 646.5,1201.5 C 648.437,1202.59 650.27,1203.92 652,1205.5C 652.414,1205.04 652.914,1204.71 653.5,1204.5C 654.934,1205.59 655.934,1206.92 656.5,1208.5C 624.925,1238.91 593.759,1269.91 563,1301.5C 554.962,1309.87 547.295,1318.54 540,1327.5C 539.187,1329.44 538.687,1331.44 538.5,1333.5C 535.5,1333.5 532.5,1333.5 529.5,1333.5C 529.414,1332.5 529.748,1331.67 530.5,1331C 529.833,1330.67 529.167,1330.33 528.5,1330C 530.657,1329.92 532.657,1329.76 534.5,1329.5C 532.775,1327.04 532.275,1324.38 533,1321.5C 533.333,1321.83 533.667,1322.17 534,1322.5C 535.27,1319.89 536.937,1317.56 539,1315.5C 539.333,1315.83 539.667,1316.17 540,1316.5C 540.359,1313.46 541.026,1313.12 542,1315.5C 542.333,1314.17 542.667,1312.83 543,1311.5C 543.333,1311.83 543.667,1312.17 544,1312.5C 544.684,1310.64 545.684,1308.97 547,1307.5C 547.333,1307.83 547.667,1308.17 548,1308.5C 548.44,1306.92 549.273,1305.59 550.5,1304.5C 550.376,1303.89 550.043,1303.56 549.5,1303.5C 550.696,1300.46 552.53,1297.79 555,1295.5C 555.333,1295.83 555.667,1296.17 556,1296.5C 558.218,1294.56 559.885,1292.23 561,1289.5C 573.724,1276.77 586.724,1264.44 600,1252.5C 615.411,1236.09 631.078,1220.09 647,1204.5C 647.47,1203.42 647.303,1202.42 646.5,1201.5 Z"/></g>
<g><path style="opacity:0.926" fill="#09bef6" d="M 549.5,1303.5 C 550.043,1303.56 550.376,1303.89 550.5,1304.5C 549.273,1305.59 548.44,1306.92 548,1308.5C 547.667,1308.17 547.333,1307.83 547,1307.5C 545.684,1308.97 544.684,1310.64 544,1312.5C 543.667,1312.17 543.333,1311.83 543,1311.5C 542.667,1312.83 542.333,1314.17 542,1315.5C 541.026,1313.12 540.359,1313.46 540,1316.5C 539.667,1316.17 539.333,1315.83 539,1315.5C 536.937,1317.56 535.27,1319.89 534,1322.5C 533.667,1322.17 533.333,1321.83 533,1321.5C 532.275,1324.38 532.775,1327.04 534.5,1329.5C 532.657,1329.76 530.657,1329.92 528.5,1330C 529.167,1330.33 529.833,1330.67 530.5,1331C 529.748,1331.67 529.414,1332.5 529.5,1333.5C 523.167,1333.5 516.833,1333.5 510.5,1333.5C 509.643,1330.96 508.31,1328.62 506.5,1326.5C 486.75,1307.02 467.75,1289.02 449.5,1272.5C 449.762,1270.44 450.929,1269.1 453,1268.5C 453.667,1269.83 454.333,1269.83 455,1268.5C 455.333,1269.5 455.667,1270.5 456,1271.5C 457.398,1270.95 458.732,1270.62 460,1270.5C 461.833,1272.33 463.667,1274.17 465.5,1276C 465.167,1276.33 464.833,1276.67 464.5,1277C 469.624,1279.45 473.124,1282.95 475,1287.5C 475.333,1287.17 475.667,1286.83 476,1286.5C 479.894,1290.36 483.061,1294.2 485.5,1298C 487.044,1298.29 488.377,1298.96 489.5,1300C 489.167,1300.33 488.833,1300.67 488.5,1301C 490.667,1303.17 492.833,1305.33 495,1307.5C 495.333,1307.17 495.667,1306.83 496,1306.5C 496.948,1308.57 498.448,1310.07 500.5,1311C 500.167,1311.33 499.833,1311.67 499.5,1312C 500.253,1313.49 501.086,1313.65 502,1312.5C 506.813,1317.64 511.98,1322.48 517.5,1327C 519.833,1327.67 522.167,1327.67 524.5,1327C 532.489,1318.5 540.823,1310.67 549.5,1303.5 Z"/></g>
</svg>
